<svg xmlns="http://www.w3.org/2000/svg" xmlns:xlink="http://www.w3.org/1999/xlink" width="500" zoomAndPan="magnify" viewBox="0 0 375 374.999991" height="500" preserveAspectRatio="xMidYMid meet" version="1.2"><defs><clipPath id="623cd9203c"><path d="M 89 94.28125 L 273 94.28125 L 273 238 L 89 238 Z M 89 94.28125 "/></clipPath><clipPath id="76b2fff0b2"><path d="M 102 105 L 286 105 L 286 260.03125 L 102 260.03125 Z M 102 105 "/></clipPath><clipPath id="b80d8dae24"><path d="M 167.566406 168.820312 L 201.316406 168.820312 L 201.316406 188.320312 L 167.566406 188.320312 Z M 167.566406 168.820312 "/></clipPath></defs><g id="fc86f2355e"><g clip-rule="nonzero" clip-path="url(#623cd9203c)"><path style=" stroke:none;fill-rule:evenodd;fill:#1c1f33;fill-opacity:1;" d="M 174.589844 159.214844 L 193.894531 159.214844 L 193.894531 147.476562 C 193.894531 144.824219 192.804688 142.410156 191.054688 140.660156 C 189.304688 138.910156 186.890625 137.820312 184.242188 137.820312 C 181.589844 137.820312 179.179688 138.910156 177.425781 140.660156 C 175.675781 142.410156 174.589844 144.824219 174.589844 147.476562 Z M 261.492188 145.148438 C 262.378906 140.664062 263.089844 136.164062 263.605469 131.671875 L 229.761719 115.726562 C 247.277344 109.503906 263.242188 107.171875 272.152344 113.691406 C 263.136719 101.191406 242.757812 103.695312 221.050781 111.625 L 184.242188 94.28125 L 104.875 131.671875 C 106.710938 147.652344 110.957031 163.71875 117.15625 178.972656 C 102.414062 194.324219 92.464844 209.007812 89.882812 218.988281 C 86.4375 232.277344 96.097656 237.609375 107.941406 237.945312 C 101.140625 236.445312 95.085938 231.621094 95.792969 223.976562 C 96.683594 214.296875 105.496094 200.699219 120.085938 185.808594 C 126.386719 199.757812 134.316406 212.890625 143.503906 224.492188 C 145.9375 223.6875 148.332031 222.832031 150.664062 221.953125 C 162.066406 217.660156 173.1875 212.285156 183.839844 206.378906 C 188.839844 203.605469 193.769531 200.691406 198.625 197.644531 L 168.652344 197.644531 C 165.90625 197.644531 163.65625 195.398438 163.65625 192.648438 L 163.65625 164.210938 C 163.65625 161.921875 165.21875 159.980469 167.328125 159.398438 L 167.328125 147.476562 C 167.328125 142.820312 169.230469 138.589844 172.292969 135.527344 C 175.355469 132.460938 179.585938 130.5625 184.242188 130.5625 C 188.898438 130.5625 193.125 132.460938 196.191406 135.527344 C 199.253906 138.589844 201.15625 142.820312 201.15625 147.476562 L 201.15625 159.398438 C 203.265625 159.980469 204.828125 161.921875 204.828125 164.210938 L 204.828125 192.648438 C 204.828125 193.023438 204.785156 193.382812 204.707031 193.734375 C 209.449219 190.609375 214.105469 187.363281 218.671875 184.007812 C 233.191406 173.328125 247.859375 160.945312 259.675781 147.292969 C 260.253906 146.625 260.863281 145.910156 261.492188 145.148438 Z M 184.242188 170.585938 C 186.519531 170.585938 188.363281 172.429688 188.363281 174.707031 C 188.363281 176.144531 187.628906 177.410156 186.515625 178.144531 L 187.066406 184.324219 L 181.417969 184.324219 L 181.96875 178.144531 C 180.855469 177.410156 180.121094 176.144531 180.121094 174.707031 C 180.121094 172.429688 181.964844 170.585938 184.242188 170.585938 Z M 184.242188 170.585938 "/></g><g clip-rule="nonzero" clip-path="url(#76b2fff0b2)"><path style=" stroke:none;fill-rule:evenodd;fill:#1fb6ff;fill-opacity:1;" d="M 285.089844 124.433594 C 282.398438 134.832031 271.710938 150.339844 255.929688 166.386719 C 242.945312 206.167969 216.519531 242.285156 184.242188 260.03125 C 172.058594 253.332031 160.757812 244.070312 150.664062 232.945312 C 130.199219 239.933594 111.382812 241.601562 102.820312 229.730469 C 126.765625 247.246094 201.628906 200.867188 220.738281 186.816406 C 255.132812 161.519531 277.726562 135.257812 279.179688 119.445312 C 279.882812 111.800781 273.832031 106.976562 267.035156 105.476562 C 278.875 105.808594 288.535156 111.144531 285.089844 124.433594 Z M 185.074219 167.386719 C 187.285156 167.550781 189.316406 168.363281 190.976562 169.636719 C 192.6875 170.949219 194.003906 172.75 194.71875 174.828125 C 194.765625 174.96875 194.691406 175.125 194.546875 175.171875 C 194.40625 175.222656 194.25 175.144531 194.203125 175.003906 C 193.523438 173.027344 192.269531 171.316406 190.644531 170.070312 C 189.066406 168.859375 187.136719 168.085938 185.039062 167.929688 C 184.957031 168.015625 184.847656 168.066406 184.71875 168.066406 C 184.480469 168.066406 184.289062 167.875 184.289062 167.636719 C 184.289062 167.394531 184.480469 167.203125 184.71875 167.203125 C 184.867188 167.203125 184.996094 167.277344 185.074219 167.386719 Z M 178.570312 193.863281 C 175.46875 192.726562 172.894531 190.730469 171.039062 188.230469 C 169.132812 185.660156 167.988281 182.554688 167.816406 179.296875 C 167.8125 179.144531 167.925781 179.015625 168.074219 179.011719 C 168.226562 179.003906 168.351562 179.117188 168.359375 179.269531 C 168.527344 182.417969 169.632812 185.421875 171.476562 187.90625 C 173.265625 190.324219 175.757812 192.253906 178.753906 193.351562 C 178.820312 193.3125 178.898438 193.289062 178.980469 193.289062 C 179.21875 193.289062 179.410156 193.484375 179.410156 193.722656 C 179.410156 193.960938 179.21875 194.15625 178.980469 194.15625 C 178.789062 194.15625 178.628906 194.03125 178.570312 193.863281 Z M 189.503906 162.707031 C 189.691406 162.707031 189.855469 162.828125 189.914062 162.996094 C 193.011719 164.132812 195.589844 166.128906 197.445312 168.632812 C 199.347656 171.203125 200.492188 174.308594 200.664062 177.566406 C 200.671875 177.714844 200.554688 177.84375 200.40625 177.851562 C 200.257812 177.859375 200.128906 177.742188 200.121094 177.59375 C 199.957031 174.441406 198.847656 171.441406 197.007812 168.953125 C 195.214844 166.535156 192.726562 164.605469 189.726562 163.507812 C 189.660156 163.546875 189.585938 163.570312 189.503906 163.570312 C 189.265625 163.570312 189.070312 163.378906 189.070312 163.136719 C 189.070312 162.898438 189.265625 162.707031 189.503906 162.707031 Z M 181.152344 162.121094 C 181.257812 162.121094 181.359375 162.160156 181.433594 162.226562 C 182.441406 162.050781 183.472656 161.96875 184.515625 161.988281 C 185.558594 162.007812 186.609375 162.125 187.65625 162.347656 C 187.800781 162.378906 187.894531 162.523438 187.863281 162.667969 C 187.832031 162.816406 187.6875 162.910156 187.542969 162.878906 C 186.527344 162.660156 185.511719 162.546875 184.507812 162.53125 C 183.503906 162.511719 182.507812 162.59375 181.53125 162.761719 C 181.457031 162.894531 181.3125 162.984375 181.152344 162.984375 C 180.914062 162.984375 180.71875 162.792969 180.71875 162.550781 C 180.71875 162.3125 180.914062 162.121094 181.152344 162.121094 Z M 200.378906 179.121094 C 200.617188 179.121094 200.808594 179.316406 200.808594 179.554688 C 200.808594 179.703125 200.734375 179.835938 200.621094 179.914062 C 200.574219 180.40625 200.503906 180.90625 200.410156 181.410156 C 200.316406 181.929688 200.195312 182.445312 200.050781 182.953125 C 199.285156 185.632812 197.894531 187.960938 196.085938 189.835938 C 194.210938 191.78125 191.882812 193.234375 189.328125 194.066406 C 189.183594 194.113281 189.03125 194.035156 188.984375 193.890625 C 188.9375 193.75 189.015625 193.597656 189.15625 193.550781 C 191.628906 192.742188 193.882812 191.339844 195.695312 189.460938 C 197.441406 187.648438 198.785156 185.394531 199.527344 182.804688 C 199.667969 182.304688 199.785156 181.804688 199.878906 181.3125 C 199.964844 180.835938 200.03125 180.351562 200.078125 179.867188 C 199.996094 179.789062 199.945312 179.675781 199.945312 179.554688 C 199.945312 179.316406 200.136719 179.121094 200.375 179.121094 Z M 187.332031 193.875 C 187.570312 193.875 187.761719 194.070312 187.761719 194.308594 C 187.761719 194.546875 187.570312 194.742188 187.332031 194.742188 C 187.222656 194.742188 187.121094 194.699219 187.046875 194.632812 C 186.042969 194.808594 185.011719 194.890625 183.964844 194.871094 C 182.925781 194.855469 181.875 194.738281 180.828125 194.515625 C 180.679688 194.484375 180.585938 194.339844 180.617188 194.191406 C 180.648438 194.042969 180.792969 193.949219 180.941406 193.980469 C 181.957031 194.199219 182.972656 194.3125 183.972656 194.328125 C 184.976562 194.347656 185.976562 194.265625 186.953125 194.097656 C 187.027344 193.964844 187.167969 193.875 187.332031 193.875 Z M 168.40625 176.996094 C 168.488281 177.074219 168.535156 177.183594 168.535156 177.304688 C 168.535156 177.546875 168.34375 177.738281 168.105469 177.738281 C 167.867188 177.738281 167.671875 177.546875 167.671875 177.304688 C 167.671875 177.15625 167.746094 177.027344 167.863281 176.949219 C 167.90625 176.453125 167.976562 175.953125 168.070312 175.449219 C 168.167969 174.929688 168.289062 174.414062 168.433594 173.90625 C 169.199219 171.230469 170.585938 168.898438 172.394531 167.023438 C 174.273438 165.078125 176.601562 163.628906 179.15625 162.792969 C 179.296875 162.75 179.453125 162.828125 179.5 162.96875 C 179.542969 163.113281 179.464844 163.265625 179.324219 163.3125 C 176.851562 164.117188 174.601562 165.519531 172.785156 167.402344 C 171.039062 169.210938 169.699219 171.46875 168.957031 174.058594 C 168.8125 174.558594 168.695312 175.054688 168.605469 175.546875 C 168.515625 176.027344 168.449219 176.507812 168.40625 176.996094 Z M 175.109375 168.902344 C 175.003906 169.007812 174.832031 169.003906 174.726562 168.894531 C 174.621094 168.785156 174.625 168.613281 174.734375 168.511719 C 176.738281 166.585938 179.203125 165.378906 181.78125 164.914062 C 184.390625 164.441406 187.117188 164.722656 189.609375 165.777344 C 189.667969 165.746094 189.738281 165.726562 189.808594 165.726562 C 190.046875 165.726562 190.242188 165.921875 190.242188 166.160156 C 190.242188 166.398438 190.046875 166.59375 189.808594 166.59375 C 189.613281 166.59375 189.445312 166.460938 189.394531 166.277344 C 187 165.265625 184.382812 164.992188 181.878906 165.445312 C 179.402344 165.894531 177.035156 167.050781 175.109375 168.902344 Z M 170.949219 175.796875 C 171.1875 175.796875 171.382812 175.988281 171.382812 176.226562 C 171.382812 176.386719 171.296875 176.523438 171.171875 176.597656 C 170.878906 178.714844 171.097656 180.882812 171.824219 182.90625 C 172.527344 184.871094 173.714844 186.699219 175.371094 188.203125 C 175.6875 188.488281 176.011719 188.757812 176.351562 189.011719 C 176.699219 189.269531 177.046875 189.503906 177.398438 189.71875 C 177.527344 189.796875 177.566406 189.960938 177.492188 190.089844 C 177.414062 190.21875 177.246094 190.261719 177.117188 190.183594 C 176.738281 189.953125 176.375 189.707031 176.023438 189.445312 C 175.675781 189.183594 175.335938 188.902344 175.003906 188.605469 C 173.28125 187.039062 172.046875 185.136719 171.3125 183.085938 C 170.554688 180.984375 170.328125 178.726562 170.632812 176.523438 C 170.5625 176.445312 170.515625 176.339844 170.515625 176.226562 C 170.515625 175.988281 170.710938 175.796875 170.949219 175.796875 Z M 173.832031 169.445312 C 174.070312 169.445312 174.265625 169.640625 174.265625 169.878906 C 174.265625 170.117188 174.074219 170.308594 173.835938 170.3125 C 173.320312 170.96875 172.878906 171.667969 172.503906 172.390625 C 172.113281 173.152344 171.800781 173.9375 171.566406 174.742188 C 171.527344 174.886719 171.375 174.96875 171.230469 174.929688 C 171.085938 174.886719 171.003906 174.734375 171.046875 174.59375 C 171.289062 173.753906 171.613281 172.929688 172.023438 172.140625 C 172.410156 171.390625 172.871094 170.664062 173.410156 169.976562 C 173.402344 169.945312 173.402344 169.910156 173.402344 169.878906 C 173.402344 169.640625 173.59375 169.445312 173.832031 169.445312 Z M 197.847656 180.339844 C 197.921875 180.414062 197.964844 180.519531 197.964844 180.632812 C 197.964844 180.871094 197.769531 181.066406 197.53125 181.066406 C 197.292969 181.066406 197.101562 180.871094 197.101562 180.632812 C 197.101562 180.476562 197.183594 180.335938 197.308594 180.261719 C 197.605469 178.144531 197.386719 175.976562 196.660156 173.957031 C 195.953125 171.992188 194.769531 170.164062 193.113281 168.660156 C 192.796875 168.375 192.46875 168.105469 192.132812 167.851562 C 191.785156 167.59375 191.433594 167.355469 191.082031 167.140625 C 190.957031 167.066406 190.914062 166.898438 190.992188 166.769531 C 191.070312 166.640625 191.234375 166.601562 191.363281 166.679688 C 191.742188 166.910156 192.109375 167.15625 192.457031 167.414062 C 192.804688 167.675781 193.148438 167.957031 193.476562 168.257812 C 195.199219 169.820312 196.433594 171.722656 197.171875 173.773438 C 197.925781 175.878906 198.15625 178.136719 197.847656 180.339844 Z M 195.070312 186.886719 C 195.078125 186.917969 195.082031 186.949219 195.082031 186.980469 C 195.082031 187.222656 194.886719 187.414062 194.648438 187.414062 C 194.410156 187.414062 194.21875 187.222656 194.21875 186.980469 C 194.21875 186.746094 194.410156 186.550781 194.644531 186.550781 C 195.160156 185.890625 195.605469 185.195312 195.976562 184.46875 C 196.371094 183.710938 196.683594 182.921875 196.914062 182.117188 C 196.957031 181.972656 197.105469 181.890625 197.25 181.933594 C 197.394531 181.972656 197.476562 182.125 197.4375 182.269531 C 197.191406 183.109375 196.867188 183.929688 196.460938 184.71875 C 196.074219 185.46875 195.609375 186.195312 195.070312 186.886719 Z M 178.671875 190.269531 C 178.871094 190.269531 179.039062 190.402344 179.089844 190.582031 C 181.480469 191.597656 184.097656 191.867188 186.605469 191.414062 C 189.078125 190.964844 191.445312 189.808594 193.371094 187.960938 C 193.480469 187.855469 193.652344 187.859375 193.753906 187.964844 C 193.859375 188.074219 193.855469 188.246094 193.746094 188.351562 C 191.742188 190.277344 189.277344 191.480469 186.699219 191.949219 C 184.089844 192.421875 181.363281 192.136719 178.875 191.082031 C 178.8125 191.113281 178.746094 191.132812 178.671875 191.132812 C 178.433594 191.132812 178.238281 190.941406 178.238281 190.699219 C 178.238281 190.460938 178.433594 190.269531 178.671875 190.269531 Z M 194.796875 175.667969 C 195.035156 175.667969 195.230469 175.859375 195.230469 176.097656 C 195.230469 176.207031 195.191406 176.300781 195.125 176.378906 C 195.1875 176.699219 195.234375 177.03125 195.265625 177.367188 C 195.300781 177.722656 195.316406 178.078125 195.316406 178.429688 C 195.316406 180.308594 194.851562 182.074219 194.027344 183.625 C 193.171875 185.230469 191.933594 186.601562 190.433594 187.613281 C 190.308594 187.699219 190.136719 187.664062 190.054688 187.542969 C 189.972656 187.417969 190.003906 187.25 190.128906 187.164062 C 191.554688 186.199219 192.734375 184.894531 193.546875 183.367188 C 194.328125 181.894531 194.773438 180.214844 194.773438 178.429688 C 194.773438 178.082031 194.757812 177.746094 194.726562 177.417969 C 194.695312 177.105469 194.652344 176.792969 194.59375 176.480469 C 194.457031 176.40625 194.363281 176.265625 194.363281 176.097656 C 194.363281 175.859375 194.558594 175.667969 194.796875 175.667969 Z M 179.257812 168.40625 C 179.324219 168.40625 179.386719 168.421875 179.441406 168.449219 C 180.058594 168.152344 180.707031 167.910156 181.375 167.730469 C 182.050781 167.550781 182.75 167.433594 183.472656 167.382812 C 183.621094 167.371094 183.753906 167.484375 183.761719 167.636719 C 183.773438 167.785156 183.660156 167.914062 183.507812 167.925781 C 182.824219 167.972656 182.15625 168.085938 181.515625 168.257812 C 180.875 168.429688 180.261719 168.65625 179.679688 168.9375 C 179.636719 169.128906 179.464844 169.273438 179.257812 169.273438 C 179.019531 169.273438 178.824219 169.078125 178.824219 168.839844 C 178.824219 168.601562 179.019531 168.40625 179.257812 168.40625 Z M 173.890625 180.382812 C 174.027344 180.453125 174.117188 180.597656 174.117188 180.761719 C 174.117188 181 173.925781 181.195312 173.6875 181.195312 C 173.449219 181.195312 173.253906 181 173.253906 180.761719 C 173.253906 180.65625 173.292969 180.558594 173.355469 180.484375 C 173.296875 180.160156 173.25 179.832031 173.21875 179.496094 C 173.183594 179.136719 173.164062 178.78125 173.164062 178.429688 C 173.164062 176.554688 173.632812 174.785156 174.457031 173.238281 C 175.3125 171.632812 176.550781 170.257812 178.050781 169.246094 C 178.175781 169.164062 178.34375 169.195312 178.429688 169.320312 C 178.511719 169.445312 178.480469 169.613281 178.355469 169.695312 C 176.929688 170.660156 175.75 171.964844 174.9375 173.492188 C 174.152344 174.964844 173.710938 176.644531 173.710938 178.429688 C 173.710938 178.777344 173.726562 179.117188 173.757812 179.441406 C 173.789062 179.757812 173.832031 180.070312 173.890625 180.378906 Z M 183.761719 188.792969 C 184 188.792969 184.195312 188.988281 184.195312 189.226562 C 184.195312 189.464844 184 189.65625 183.761719 189.65625 C 183.617188 189.65625 183.488281 189.585938 183.410156 189.472656 C 181.195312 189.308594 179.167969 188.496094 177.507812 187.222656 C 175.796875 185.910156 174.480469 184.113281 173.765625 182.035156 C 173.71875 181.890625 173.792969 181.738281 173.933594 181.6875 C 174.078125 181.640625 174.230469 181.714844 174.28125 181.859375 C 174.960938 183.835938 176.210938 185.542969 177.835938 186.792969 C 179.414062 188 181.34375 188.773438 183.445312 188.933594 C 183.523438 188.847656 183.636719 188.792969 183.761719 188.792969 Z M 189.226562 187.589844 C 189.464844 187.589844 189.65625 187.78125 189.65625 188.023438 C 189.65625 188.261719 189.464844 188.453125 189.226562 188.453125 C 189.160156 188.453125 189.097656 188.4375 189.039062 188.414062 C 188.425781 188.710938 187.777344 188.953125 187.109375 189.128906 C 186.433594 189.3125 185.730469 189.429688 185.011719 189.480469 C 184.859375 189.488281 184.730469 189.375 184.722656 189.226562 C 184.710938 189.078125 184.824219 188.945312 184.972656 188.9375 C 185.660156 188.890625 186.324219 188.777344 186.96875 188.605469 C 187.609375 188.433594 188.222656 188.207031 188.800781 187.925781 C 188.847656 187.734375 189.019531 187.589844 189.226562 187.589844 Z M 189.226562 187.589844 "/></g><g clip-rule="nonzero" clip-path="url(#b80d8dae24)"><path style=" stroke:none;fill-rule:nonzero;fill:#000000;fill-opacity:1;" d="M 184.445312 188.179688 C 175.121094 188.179688 167.566406 178.496094 167.585938 178.515625 C 167.59375 178.523438 175.121094 168.828125 184.445312 168.828125 C 193.769531 168.828125 201.246094 178.453125 201.308594 178.515625 C 201.316406 178.523438 193.769531 188.179688 184.445312 188.179688 Z M 184.445312 188.179688 "/></g><path style=" stroke:none;fill-rule:nonzero;fill:#1fb6ff;fill-opacity:1;" d="M 184.433594 186.070312 C 180.257812 186.070312 176.882812 182.691406 176.882812 178.515625 C 176.882812 174.335938 180.257812 170.960938 184.433594 170.960938 C 188.613281 170.960938 191.988281 174.335938 191.988281 178.515625 C 191.988281 182.691406 188.613281 186.070312 184.433594 186.070312 Z M 184.433594 186.070312 "/><path style=" stroke:none;fill-rule:nonzero;fill:#000000;fill-opacity:1;" d="M 184.445312 182.816406 C 182.074219 182.816406 180.15625 180.898438 180.15625 178.523438 C 180.15625 176.152344 182.074219 174.234375 184.445312 174.234375 C 186.816406 174.234375 188.734375 176.152344 188.734375 178.523438 C 188.734375 180.898438 186.816406 182.816406 184.445312 182.816406 Z M 184.445312 182.816406 "/><path style=" stroke:none;fill-rule:nonzero;fill:#ffffff;fill-opacity:1;" d="M 182.914062 181.503906 C 182.382812 181.503906 181.953125 181.074219 181.953125 180.542969 C 181.953125 180.011719 182.382812 179.582031 182.914062 179.582031 C 183.445312 179.582031 183.875 180.011719 183.875 180.542969 C 183.875 181.074219 183.445312 181.503906 182.914062 181.503906 Z M 182.914062 181.503906 "/><path style=" stroke:none;fill-rule:nonzero;fill:#ffffff;fill-opacity:1;" d="M 186.554688 176.304688 C 186.332031 176.304688 186.152344 176.125 186.152344 175.902344 C 186.152344 175.675781 186.332031 175.496094 186.554688 175.496094 C 186.777344 175.496094 186.957031 175.675781 186.957031 175.902344 C 186.957031 176.125 186.777344 176.304688 186.554688 176.304688 Z M 186.554688 176.304688 "/></g></svg>