<svg xmlns="http://www.w3.org/2000/svg" xmlns:xlink="http://www.w3.org/1999/xlink" width="500" zoomAndPan="magnify" viewBox="0 0 375 374.999991" height="500" preserveAspectRatio="xMidYMid meet" version="1.2"><defs><clipPath id="77c565b01d"><path d="M 104 107.015625 L 264 107.015625 L 264 232 L 104 232 Z M 104 107.015625 "/></clipPath><clipPath id="5ee0808d99"><path d="M 172.878906 171.804688 L 202.128906 171.804688 L 202.128906 189 L 172.878906 189 Z M 172.878906 171.804688 "/></clipPath></defs><g id="bcb8bfc79b"><g clip-rule="nonzero" clip-path="url(#77c565b01d)"><path style=" stroke:none;fill-rule:evenodd;fill:#ffffff;fill-opacity:1;" d="M 178.898438 163.394531 L 195.660156 163.394531 L 195.660156 153.199219 C 195.660156 150.898438 194.714844 148.804688 193.195312 147.285156 C 191.675781 145.761719 189.582031 144.820312 187.28125 144.820312 C 184.976562 144.820312 182.882812 145.761719 181.363281 147.285156 C 179.84375 148.804688 178.898438 150.898438 178.898438 153.199219 Z M 254.351562 151.179688 C 255.121094 147.285156 255.738281 143.378906 256.1875 139.476562 L 226.800781 125.632812 C 242.007812 120.234375 255.871094 118.207031 263.605469 123.867188 C 255.78125 113.015625 238.085938 115.191406 219.238281 122.074219 L 187.28125 107.015625 L 118.371094 139.480469 C 119.964844 153.355469 123.652344 167.300781 129.035156 180.546875 C 116.234375 193.875 107.597656 206.625 105.355469 215.289062 C 102.363281 226.828125 110.75 231.460938 121.03125 231.75 C 115.128906 230.445312 109.875 226.257812 110.484375 219.621094 C 111.257812 211.214844 118.910156 199.410156 131.578125 186.484375 C 137.050781 198.59375 143.933594 209.996094 151.910156 220.070312 C 154.023438 219.371094 156.101562 218.628906 158.128906 217.867188 C 168.027344 214.136719 177.683594 209.46875 186.929688 204.34375 C 191.273438 201.933594 195.554688 199.402344 199.765625 196.761719 L 173.746094 196.761719 C 171.359375 196.761719 169.40625 194.808594 169.40625 192.421875 L 169.40625 167.730469 C 169.40625 165.746094 170.761719 164.058594 172.59375 163.550781 L 172.59375 153.199219 C 172.59375 149.160156 174.246094 145.488281 176.90625 142.828125 C 179.566406 140.167969 183.238281 138.515625 187.28125 138.515625 C 191.324219 138.515625 194.996094 140.167969 197.65625 142.828125 C 200.316406 145.488281 201.964844 149.160156 201.964844 153.199219 L 201.964844 163.550781 C 203.796875 164.058594 205.152344 165.746094 205.152344 167.730469 L 205.152344 192.421875 C 205.152344 192.746094 205.117188 193.058594 205.050781 193.363281 C 209.164062 190.652344 213.210938 187.832031 217.171875 184.917969 C 229.777344 175.648438 242.515625 164.898438 252.777344 153.042969 C 253.277344 152.460938 253.804688 151.839844 254.351562 151.183594 Z M 187.28125 173.265625 C 189.257812 173.265625 190.859375 174.867188 190.859375 176.84375 C 190.859375 178.089844 190.21875 179.191406 189.253906 179.828125 L 189.730469 185.195312 L 184.828125 185.195312 L 185.308594 179.828125 C 184.339844 179.191406 183.703125 178.089844 183.703125 176.84375 C 183.703125 174.867188 185.304688 173.265625 187.28125 173.265625 Z M 187.28125 173.265625 "/></g><path style=" stroke:none;fill-rule:evenodd;fill:#ffffff;fill-opacity:1;" d="M 274.839844 133.195312 C 272.5 142.222656 263.222656 155.6875 249.523438 169.621094 C 238.246094 204.15625 215.304688 235.515625 187.28125 250.925781 C 176.703125 245.109375 166.890625 237.070312 158.128906 227.410156 C 140.359375 233.476562 124.023438 234.921875 116.589844 224.613281 C 137.378906 239.824219 202.375 199.554688 218.964844 187.355469 C 248.832031 165.390625 268.445312 142.59375 269.710938 128.863281 C 270.320312 122.226562 265.066406 118.035156 259.164062 116.734375 C 269.445312 117.023438 277.832031 121.65625 274.839844 133.195312 Z M 188.003906 170.488281 C 189.921875 170.632812 191.6875 171.335938 193.125 172.441406 C 194.613281 173.582031 195.753906 175.144531 196.375 176.949219 C 196.417969 177.070312 196.351562 177.207031 196.226562 177.25 C 196.105469 177.289062 195.96875 177.226562 195.929688 177.101562 C 195.335938 175.386719 194.25 173.898438 192.839844 172.816406 C 191.46875 171.765625 189.796875 171.09375 187.972656 170.960938 C 187.902344 171.03125 187.804688 171.078125 187.695312 171.078125 C 187.488281 171.078125 187.320312 170.910156 187.320312 170.703125 C 187.320312 170.496094 187.488281 170.328125 187.695312 170.328125 C 187.824219 170.328125 187.933594 170.390625 188.003906 170.488281 Z M 182.355469 193.476562 C 179.664062 192.488281 177.425781 190.757812 175.816406 188.585938 C 174.164062 186.351562 173.167969 183.65625 173.019531 180.828125 C 173.015625 180.695312 173.113281 180.585938 173.246094 180.578125 C 173.375 180.574219 173.484375 180.671875 173.492188 180.804688 C 173.636719 183.539062 174.597656 186.144531 176.195312 188.304688 C 177.753906 190.402344 179.914062 192.078125 182.515625 193.03125 C 182.574219 192.996094 182.640625 192.976562 182.710938 192.976562 C 182.917969 192.976562 183.085938 193.144531 183.085938 193.351562 C 183.085938 193.5625 182.917969 193.730469 182.710938 193.730469 C 182.546875 193.730469 182.40625 193.621094 182.355469 193.476562 Z M 191.847656 166.425781 C 192.011719 166.425781 192.152344 166.53125 192.203125 166.675781 C 194.894531 167.664062 197.132812 169.394531 198.742188 171.570312 C 200.394531 173.800781 201.390625 176.496094 201.539062 179.324219 C 201.546875 179.457031 201.445312 179.566406 201.316406 179.574219 C 201.183594 179.578125 201.074219 179.480469 201.066406 179.351562 C 200.921875 176.613281 199.964844 174.007812 198.363281 171.847656 C 196.808594 169.75 194.644531 168.074219 192.042969 167.121094 C 191.984375 167.15625 191.917969 167.175781 191.847656 167.175781 C 191.640625 167.175781 191.472656 167.007812 191.472656 166.800781 C 191.472656 166.59375 191.640625 166.425781 191.847656 166.425781 Z M 184.597656 165.914062 C 184.691406 165.914062 184.777344 165.949219 184.84375 166.007812 C 185.714844 165.855469 186.613281 165.785156 187.519531 165.800781 C 188.421875 165.816406 189.335938 165.917969 190.242188 166.113281 C 190.371094 166.140625 190.453125 166.265625 190.425781 166.390625 C 190.398438 166.519531 190.273438 166.601562 190.144531 166.574219 C 189.261719 166.386719 188.382812 166.285156 187.511719 166.273438 C 186.640625 166.257812 185.773438 166.328125 184.925781 166.472656 C 184.859375 166.589844 184.738281 166.667969 184.597656 166.667969 C 184.390625 166.667969 184.222656 166.5 184.222656 166.289062 C 184.222656 166.082031 184.390625 165.914062 184.597656 165.914062 Z M 201.289062 180.675781 C 201.496094 180.675781 201.664062 180.84375 201.664062 181.054688 C 201.664062 181.183594 201.597656 181.296875 201.5 181.363281 C 201.460938 181.792969 201.402344 182.226562 201.320312 182.664062 C 201.234375 183.113281 201.132812 183.5625 201.003906 184.003906 C 200.339844 186.328125 199.132812 188.351562 197.566406 189.980469 C 195.933594 191.667969 193.914062 192.929688 191.695312 193.652344 C 191.570312 193.691406 191.4375 193.625 191.398438 193.5 C 191.355469 193.378906 191.425781 193.242188 191.546875 193.203125 C 193.695312 192.503906 195.648438 191.285156 197.222656 189.652344 C 198.742188 188.082031 199.90625 186.121094 200.550781 183.875 C 200.675781 183.441406 200.777344 183.007812 200.855469 182.578125 C 200.933594 182.164062 200.988281 181.746094 201.027344 181.324219 C 200.957031 181.253906 200.914062 181.160156 200.914062 181.054688 C 200.914062 180.84375 201.082031 180.679688 201.289062 180.679688 Z M 189.960938 193.488281 C 190.167969 193.488281 190.335938 193.65625 190.335938 193.863281 C 190.335938 194.070312 190.167969 194.238281 189.960938 194.238281 C 189.867188 194.238281 189.78125 194.203125 189.714844 194.144531 C 188.84375 194.296875 187.949219 194.367188 187.039062 194.351562 C 186.136719 194.335938 185.222656 194.234375 184.316406 194.039062 C 184.1875 194.011719 184.105469 193.886719 184.132812 193.761719 C 184.160156 193.632812 184.285156 193.550781 184.414062 193.578125 C 185.296875 193.765625 186.175781 193.867188 187.046875 193.878906 C 187.917969 193.894531 188.785156 193.828125 189.632812 193.679688 C 189.699219 193.5625 189.820312 193.488281 189.960938 193.488281 Z M 173.53125 178.832031 C 173.601562 178.898438 173.644531 178.992188 173.644531 179.101562 C 173.644531 179.308594 173.476562 179.476562 173.269531 179.476562 C 173.0625 179.476562 172.894531 179.308594 172.894531 179.101562 C 172.894531 178.972656 172.960938 178.855469 173.058594 178.789062 C 173.097656 178.359375 173.160156 177.925781 173.238281 177.488281 C 173.324219 177.039062 173.429688 176.589844 173.554688 176.148438 C 174.21875 173.824219 175.425781 171.800781 176.996094 170.171875 C 178.625 168.484375 180.644531 167.222656 182.863281 166.5 C 182.988281 166.460938 183.121094 166.527344 183.160156 166.652344 C 183.203125 166.777344 183.132812 166.910156 183.011719 166.949219 C 180.863281 167.648438 178.910156 168.867188 177.335938 170.5 C 175.816406 172.074219 174.652344 174.03125 174.007812 176.28125 C 173.882812 176.714844 173.785156 177.144531 173.703125 177.574219 C 173.625 177.988281 173.570312 178.410156 173.53125 178.832031 Z M 179.351562 171.804688 C 179.257812 171.894531 179.109375 171.890625 179.019531 171.796875 C 178.929688 171.703125 178.933594 171.554688 179.023438 171.464844 C 180.765625 169.792969 182.90625 168.746094 185.144531 168.339844 C 187.410156 167.929688 189.777344 168.175781 191.9375 169.089844 C 191.992188 169.0625 192.050781 169.046875 192.113281 169.046875 C 192.320312 169.046875 192.488281 169.214844 192.488281 169.421875 C 192.488281 169.632812 192.320312 169.800781 192.113281 169.800781 C 191.941406 169.800781 191.796875 169.683594 191.753906 169.527344 C 189.675781 168.644531 187.402344 168.410156 185.226562 168.804688 C 183.078125 169.191406 181.023438 170.199219 179.351562 171.804688 Z M 175.738281 177.789062 C 175.945312 177.789062 176.113281 177.957031 176.113281 178.164062 C 176.113281 178.300781 176.042969 178.421875 175.933594 178.484375 C 175.675781 180.324219 175.867188 182.207031 176.496094 183.960938 C 177.109375 185.667969 178.140625 187.253906 179.578125 188.558594 C 179.851562 188.808594 180.136719 189.042969 180.429688 189.261719 C 180.730469 189.488281 181.035156 189.691406 181.339844 189.878906 C 181.449219 189.945312 181.484375 190.089844 181.417969 190.199219 C 181.351562 190.3125 181.207031 190.347656 181.09375 190.28125 C 180.765625 190.082031 180.449219 189.867188 180.144531 189.640625 C 179.84375 189.414062 179.546875 189.171875 179.261719 188.910156 C 177.765625 187.550781 176.691406 185.898438 176.054688 184.121094 C 175.398438 182.292969 175.199219 180.332031 175.464844 178.421875 C 175.402344 178.351562 175.363281 178.261719 175.363281 178.164062 C 175.363281 177.957031 175.53125 177.789062 175.738281 177.789062 Z M 178.242188 172.277344 C 178.449219 172.277344 178.617188 172.445312 178.617188 172.652344 C 178.617188 172.859375 178.453125 173.023438 178.246094 173.027344 C 177.800781 173.597656 177.414062 174.203125 177.089844 174.832031 C 176.75 175.492188 176.480469 176.175781 176.277344 176.875 C 176.238281 177 176.109375 177.070312 175.984375 177.035156 C 175.859375 177 175.789062 176.867188 175.824219 176.742188 C 176.035156 176.015625 176.316406 175.300781 176.671875 174.617188 C 177.007812 173.964844 177.410156 173.332031 177.875 172.734375 C 177.871094 172.707031 177.867188 172.679688 177.867188 172.652344 C 177.867188 172.445312 178.035156 172.277344 178.242188 172.277344 Z M 199.09375 181.734375 C 199.15625 181.800781 199.195312 181.890625 199.195312 181.988281 C 199.195312 182.195312 199.027344 182.363281 198.820312 182.363281 C 198.613281 182.363281 198.445312 182.195312 198.445312 181.988281 C 198.445312 181.851562 198.515625 181.730469 198.625 181.667969 C 198.882812 179.828125 198.691406 177.945312 198.0625 176.191406 C 197.449219 174.484375 196.417969 172.898438 194.980469 171.59375 C 194.707031 171.34375 194.421875 171.109375 194.128906 170.890625 C 193.828125 170.667969 193.527344 170.460938 193.21875 170.277344 C 193.109375 170.207031 193.074219 170.0625 193.140625 169.953125 C 193.207031 169.839844 193.351562 169.804688 193.464844 169.875 C 193.792969 170.074219 194.109375 170.285156 194.414062 170.511719 C 194.714844 170.738281 195.011719 170.984375 195.300781 171.246094 C 196.796875 172.601562 197.867188 174.253906 198.503906 176.03125 C 199.160156 177.859375 199.359375 179.820312 199.09375 181.734375 Z M 196.683594 187.417969 C 196.6875 187.445312 196.691406 187.472656 196.691406 187.5 C 196.691406 187.707031 196.523438 187.875 196.316406 187.875 C 196.109375 187.875 195.941406 187.710938 195.941406 187.5 C 195.941406 187.296875 196.109375 187.128906 196.3125 187.125 C 196.761719 186.554688 197.144531 185.949219 197.46875 185.320312 C 197.808594 184.660156 198.082031 183.976562 198.285156 183.277344 C 198.320312 183.152344 198.449219 183.082031 198.574219 183.117188 C 198.699219 183.152344 198.773438 183.285156 198.734375 183.410156 C 198.523438 184.136719 198.242188 184.851562 197.890625 185.535156 C 197.554688 186.1875 197.152344 186.820312 196.683594 187.417969 Z M 182.445312 190.355469 C 182.617188 190.355469 182.761719 190.46875 182.804688 190.628906 C 184.882812 191.507812 187.15625 191.742188 189.332031 191.347656 C 191.480469 190.960938 193.535156 189.957031 195.207031 188.351562 C 195.300781 188.257812 195.449219 188.261719 195.539062 188.355469 C 195.628906 188.449219 195.628906 188.597656 195.535156 188.691406 C 193.792969 190.363281 191.652344 191.40625 189.414062 191.8125 C 187.148438 192.222656 184.78125 191.976562 182.621094 191.0625 C 182.566406 191.089844 182.507812 191.105469 182.445312 191.105469 C 182.238281 191.105469 182.070312 190.9375 182.070312 190.730469 C 182.070312 190.523438 182.238281 190.355469 182.445312 190.355469 Z M 196.445312 177.675781 C 196.652344 177.675781 196.820312 177.84375 196.820312 178.050781 C 196.820312 178.144531 196.785156 178.230469 196.730469 178.292969 C 196.78125 178.574219 196.824219 178.859375 196.851562 179.152344 C 196.882812 179.460938 196.894531 179.769531 196.894531 180.078125 C 196.894531 181.707031 196.492188 183.242188 195.777344 184.585938 C 195.035156 185.980469 193.957031 187.171875 192.65625 188.050781 C 192.546875 188.125 192.398438 188.09375 192.328125 187.988281 C 192.253906 187.878906 192.28125 187.730469 192.390625 187.660156 C 193.628906 186.824219 194.652344 185.691406 195.359375 184.363281 C 196.039062 183.085938 196.421875 181.625 196.421875 180.078125 C 196.421875 179.773438 196.410156 179.480469 196.382812 179.195312 C 196.355469 178.925781 196.316406 178.652344 196.265625 178.382812 C 196.148438 178.320312 196.070312 178.195312 196.070312 178.050781 C 196.070312 177.84375 196.238281 177.675781 196.445312 177.675781 Z M 182.953125 171.375 C 183.011719 171.375 183.066406 171.386719 183.113281 171.410156 C 183.648438 171.152344 184.210938 170.941406 184.789062 170.789062 C 185.375 170.628906 185.988281 170.527344 186.613281 170.484375 C 186.742188 170.476562 186.855469 170.574219 186.863281 170.703125 C 186.871094 170.835938 186.773438 170.945312 186.644531 170.957031 C 186.050781 170.996094 185.46875 171.09375 184.914062 171.242188 C 184.355469 171.390625 183.824219 171.589844 183.320312 171.832031 C 183.28125 172 183.132812 172.125 182.953125 172.125 C 182.746094 172.125 182.578125 171.957031 182.578125 171.75 C 182.578125 171.542969 182.746094 171.375 182.953125 171.375 Z M 178.292969 181.769531 C 178.410156 181.832031 178.492188 181.957031 178.492188 182.101562 C 178.492188 182.308594 178.324219 182.476562 178.117188 182.476562 C 177.910156 182.476562 177.742188 182.308594 177.742188 182.101562 C 177.742188 182.007812 177.773438 181.925781 177.828125 181.859375 C 177.777344 181.578125 177.734375 181.292969 177.707031 181 C 177.679688 180.691406 177.664062 180.382812 177.664062 180.078125 C 177.664062 178.449219 178.070312 176.914062 178.785156 175.566406 C 179.527344 174.171875 180.601562 172.980469 181.90625 172.101562 C 182.011719 172.03125 182.160156 172.058594 182.234375 172.167969 C 182.304688 172.273438 182.277344 172.421875 182.167969 172.492188 C 180.929688 173.332031 179.90625 174.464844 179.203125 175.789062 C 178.523438 177.066406 178.136719 178.527344 178.136719 180.074219 C 178.136719 180.378906 178.152344 180.671875 178.175781 180.957031 C 178.203125 181.226562 178.242188 181.5 178.292969 181.769531 Z M 186.863281 189.074219 C 187.070312 189.074219 187.238281 189.242188 187.238281 189.449219 C 187.238281 189.65625 187.070312 189.824219 186.863281 189.824219 C 186.738281 189.824219 186.625 189.761719 186.554688 189.664062 C 184.636719 189.523438 182.875 188.816406 181.433594 187.710938 C 179.949219 186.570312 178.804688 185.011719 178.183594 183.207031 C 178.140625 183.082031 178.207031 182.949219 178.332031 182.90625 C 178.453125 182.863281 178.589844 182.929688 178.632812 183.050781 C 179.222656 184.769531 180.308594 186.253906 181.71875 187.335938 C 183.089844 188.386719 184.765625 189.058594 186.589844 189.195312 C 186.65625 189.121094 186.753906 189.074219 186.863281 189.074219 Z M 191.605469 188.027344 C 191.8125 188.027344 191.980469 188.195312 191.980469 188.402344 C 191.980469 188.613281 191.8125 188.777344 191.605469 188.777344 C 191.550781 188.777344 191.496094 188.765625 191.445312 188.742188 C 190.910156 189 190.351562 189.210938 189.769531 189.367188 C 189.183594 189.523438 188.574219 189.625 187.949219 189.667969 C 187.816406 189.679688 187.707031 189.578125 187.695312 189.449219 C 187.6875 189.320312 187.785156 189.207031 187.914062 189.199219 C 188.511719 189.15625 189.089844 189.058594 189.648438 188.910156 C 190.203125 188.761719 190.734375 188.5625 191.238281 188.320312 C 191.277344 188.152344 191.425781 188.027344 191.605469 188.027344 Z M 191.605469 188.027344 "/><g clip-rule="nonzero" clip-path="url(#5ee0808d99)"><path style=" stroke:none;fill-rule:nonzero;fill:#ffffff;fill-opacity:1;" d="M 187.507812 188.582031 C 179.425781 188.582031 172.878906 180.191406 172.894531 180.207031 C 172.902344 180.214844 179.425781 171.808594 187.507812 171.808594 C 195.589844 171.808594 202.066406 180.152344 202.121094 180.207031 C 202.128906 180.214844 195.589844 188.582031 187.507812 188.582031 Z M 187.507812 188.582031 "/></g><path style=" stroke:none;fill-rule:nonzero;fill:#ffffff;fill-opacity:1;" d="M 187.5 186.753906 C 183.878906 186.753906 180.953125 183.828125 180.953125 180.207031 C 180.953125 176.585938 183.878906 173.660156 187.5 173.660156 C 191.121094 173.660156 194.046875 176.585938 194.046875 180.207031 C 194.046875 183.828125 191.121094 186.753906 187.5 186.753906 Z M 187.5 186.753906 "/><path style=" stroke:none;fill-rule:nonzero;fill:#ffffff;fill-opacity:1;" d="M 187.507812 183.933594 C 185.453125 183.933594 183.789062 182.273438 183.789062 180.214844 C 183.789062 178.160156 185.453125 176.496094 187.507812 176.496094 C 189.566406 176.496094 191.226562 178.160156 191.226562 180.214844 C 191.226562 182.273438 189.566406 183.933594 187.507812 183.933594 Z M 187.507812 183.933594 "/><path style=" stroke:none;fill-rule:nonzero;fill:#ffffff;fill-opacity:1;" d="M 186.179688 182.796875 C 185.71875 182.796875 185.347656 182.425781 185.347656 181.964844 C 185.347656 181.503906 185.71875 181.128906 186.179688 181.128906 C 186.640625 181.128906 187.015625 181.503906 187.015625 181.964844 C 187.015625 182.425781 186.640625 182.796875 186.179688 182.796875 Z M 186.179688 182.796875 "/><path style=" stroke:none;fill-rule:nonzero;fill:#ffffff;fill-opacity:1;" d="M 189.335938 178.289062 C 189.140625 178.289062 188.984375 178.136719 188.984375 177.941406 C 188.984375 177.746094 189.140625 177.589844 189.335938 177.589844 C 189.53125 177.589844 189.683594 177.746094 189.683594 177.941406 C 189.683594 178.136719 189.53125 178.289062 189.335938 178.289062 Z M 189.335938 178.289062 "/><g style="fill:#000000;fill-opacity:1;"><g transform="translate(227.773233, 247.263046)"><path style="stroke:none" d="M 0.796875 -2.6875 L 0.796875 -3.015625 C 0.796875 -3.242188 0.914062 -3.359375 1.15625 -3.359375 L 2.546875 -3.359375 C 2.773438 -3.359375 2.890625 -3.242188 2.890625 -3.015625 L 2.890625 -2.890625 C 2.890625 -2.472656 2.972656 -2.1875 3.140625 -2.03125 C 3.304688 -1.882812 3.609375 -1.8125 4.046875 -1.8125 L 4.8125 -1.8125 C 5.238281 -1.8125 5.535156 -1.890625 5.703125 -2.046875 C 5.878906 -2.210938 5.96875 -2.519531 5.96875 -2.96875 L 5.96875 -3.171875 C 5.96875 -3.484375 5.835938 -3.722656 5.578125 -3.890625 C 5.316406 -4.066406 4.992188 -4.171875 4.609375 -4.203125 C 4.234375 -4.234375 3.820312 -4.296875 3.375 -4.390625 C 2.925781 -4.484375 2.507812 -4.601562 2.125 -4.75 C 1.75 -4.894531 1.429688 -5.179688 1.171875 -5.609375 C 0.910156 -6.046875 0.78125 -6.609375 0.78125 -7.296875 L 0.78125 -7.859375 C 0.78125 -8.710938 1.019531 -9.375 1.5 -9.84375 C 1.988281 -10.320312 2.660156 -10.5625 3.515625 -10.5625 L 5.15625 -10.5625 C 6.019531 -10.5625 6.691406 -10.320312 7.171875 -9.84375 C 7.660156 -9.375 7.90625 -8.710938 7.90625 -7.859375 L 7.90625 -7.546875 C 7.90625 -7.316406 7.785156 -7.203125 7.546875 -7.203125 L 6.15625 -7.203125 C 5.925781 -7.203125 5.8125 -7.316406 5.8125 -7.546875 L 5.8125 -7.65625 C 5.8125 -8.082031 5.726562 -8.367188 5.5625 -8.515625 C 5.40625 -8.671875 5.101562 -8.75 4.65625 -8.75 L 4.015625 -8.75 C 3.566406 -8.75 3.265625 -8.664062 3.109375 -8.5 C 2.953125 -8.332031 2.875 -8 2.875 -7.5 L 2.875 -7.1875 C 2.875 -6.675781 3.320312 -6.382812 4.21875 -6.3125 C 5.144531 -6.226562 5.972656 -6.039062 6.703125 -5.75 C 7.085938 -5.582031 7.40625 -5.285156 7.65625 -4.859375 C 7.914062 -4.441406 8.046875 -3.90625 8.046875 -3.25 L 8.046875 -2.6875 C 8.046875 -1.832031 7.800781 -1.171875 7.3125 -0.703125 C 6.832031 -0.234375 6.171875 0 5.328125 0 L 3.53125 0 C 2.675781 0 2.003906 -0.234375 1.515625 -0.703125 C 1.035156 -1.171875 0.796875 -1.832031 0.796875 -2.6875 Z M 0.796875 -2.6875 "/></g></g><g style="fill:#000000;fill-opacity:1;"><g transform="translate(236.625305, 247.263046)"><path style="stroke:none" d="M 3.84375 0 L 3.453125 0 C 2.585938 0 1.914062 -0.226562 1.4375 -0.6875 C 0.96875 -1.144531 0.734375 -1.804688 0.734375 -2.671875 L 0.734375 -5.703125 C 0.734375 -6.566406 0.96875 -7.226562 1.4375 -7.6875 C 1.914062 -8.144531 2.585938 -8.375 3.453125 -8.375 L 7.234375 -8.375 C 7.484375 -8.375 7.609375 -8.257812 7.609375 -8.03125 L 7.609375 -0.34375 C 7.609375 -0.113281 7.484375 0 7.234375 0 L 5.859375 0 C 5.628906 0 5.515625 -0.113281 5.515625 -0.34375 L 5.515625 -0.890625 L 5.453125 -0.890625 C 5.328125 -0.585938 5.113281 -0.363281 4.8125 -0.21875 C 4.507812 -0.0703125 4.1875 0 3.84375 0 Z M 5.515625 -3.046875 L 5.515625 -6.390625 C 5.515625 -6.503906 5.453125 -6.5625 5.328125 -6.5625 L 3.78125 -6.5625 C 3.425781 -6.5625 3.175781 -6.488281 3.03125 -6.34375 C 2.894531 -6.195312 2.828125 -5.945312 2.828125 -5.59375 L 2.828125 -2.78125 C 2.828125 -2.425781 2.894531 -2.175781 3.03125 -2.03125 C 3.175781 -1.882812 3.425781 -1.8125 3.78125 -1.8125 L 4.390625 -1.8125 C 5.140625 -1.8125 5.515625 -2.222656 5.515625 -3.046875 Z M 5.515625 -3.046875 "/></g></g><g style="fill:#000000;fill-opacity:1;"><g transform="translate(245.132491, 247.263046)"><path style="stroke:none" d="M 3.9375 -8.375 L 5.25 -8.375 C 5.382812 -8.375 5.472656 -8.347656 5.515625 -8.296875 C 5.566406 -8.253906 5.59375 -8.171875 5.59375 -8.046875 L 5.59375 -6.90625 C 5.59375 -6.675781 5.476562 -6.5625 5.25 -6.5625 L 3.9375 -6.5625 C 3.820312 -6.5625 3.765625 -6.503906 3.765625 -6.390625 L 3.765625 -0.34375 C 3.765625 -0.113281 3.644531 0 3.40625 0 L 2.015625 0 C 1.785156 0 1.671875 -0.113281 1.671875 -0.34375 L 1.671875 -6.390625 C 1.671875 -6.503906 1.609375 -6.5625 1.484375 -6.5625 L 0.71875 -6.5625 C 0.488281 -6.5625 0.375 -6.675781 0.375 -6.90625 L 0.375 -8.046875 C 0.375 -8.179688 0.398438 -8.269531 0.453125 -8.3125 C 0.503906 -8.351562 0.59375 -8.375 0.71875 -8.375 L 1.484375 -8.375 C 1.609375 -8.375 1.671875 -8.4375 1.671875 -8.5625 L 1.671875 -8.875 C 1.671875 -9.738281 1.894531 -10.398438 2.34375 -10.859375 C 2.800781 -11.316406 3.460938 -11.546875 4.328125 -11.546875 L 5.265625 -11.546875 C 5.398438 -11.546875 5.488281 -11.519531 5.53125 -11.46875 C 5.570312 -11.414062 5.59375 -11.332031 5.59375 -11.21875 L 5.59375 -10.078125 C 5.59375 -9.847656 5.484375 -9.734375 5.265625 -9.734375 L 4.65625 -9.734375 C 4.3125 -9.734375 4.078125 -9.660156 3.953125 -9.515625 C 3.828125 -9.367188 3.765625 -9.117188 3.765625 -8.765625 L 3.765625 -8.5625 C 3.765625 -8.4375 3.820312 -8.375 3.9375 -8.375 Z M 3.9375 -8.375 "/></g></g><g style="fill:#000000;fill-opacity:1;"><g transform="translate(250.946285, 247.263046)"><path style="stroke:none" d="M 7.078125 0 L 3.453125 0 C 2.585938 0 1.914062 -0.226562 1.4375 -0.6875 C 0.96875 -1.144531 0.734375 -1.804688 0.734375 -2.671875 L 0.734375 -5.703125 C 0.734375 -6.566406 0.96875 -7.226562 1.4375 -7.6875 C 1.914062 -8.144531 2.585938 -8.375 3.453125 -8.375 L 4.75 -8.375 C 5.613281 -8.375 6.28125 -8.144531 6.75 -7.6875 C 7.21875 -7.226562 7.453125 -6.566406 7.453125 -5.703125 L 7.453125 -3.609375 C 7.453125 -3.378906 7.335938 -3.265625 7.109375 -3.265625 L 2.984375 -3.265625 C 2.859375 -3.265625 2.796875 -3.207031 2.796875 -3.09375 L 2.796875 -2.71875 C 2.796875 -2.382812 2.867188 -2.144531 3.015625 -2 C 3.160156 -1.851562 3.410156 -1.78125 3.765625 -1.78125 L 7.078125 -1.78125 C 7.304688 -1.78125 7.421875 -1.65625 7.421875 -1.40625 L 7.421875 -0.328125 C 7.421875 -0.203125 7.394531 -0.113281 7.34375 -0.0625 C 7.300781 -0.0195312 7.210938 0 7.078125 0 Z M 2.984375 -4.65625 L 5.21875 -4.65625 C 5.34375 -4.65625 5.40625 -4.71875 5.40625 -4.84375 L 5.40625 -5.625 C 5.40625 -5.976562 5.332031 -6.222656 5.1875 -6.359375 C 5.039062 -6.503906 4.796875 -6.578125 4.453125 -6.578125 L 3.765625 -6.578125 C 3.410156 -6.578125 3.160156 -6.503906 3.015625 -6.359375 C 2.878906 -6.222656 2.8125 -5.976562 2.8125 -5.625 L 2.8125 -4.84375 C 2.8125 -4.71875 2.867188 -4.65625 2.984375 -4.65625 Z M 2.984375 -4.65625 "/></g></g><g style="fill:#000000;fill-opacity:1;"><g transform="translate(259.059319, 247.263046)"><path style="stroke:none" d="M 5.359375 0 L 3.609375 0 C 2.742188 0 2.078125 -0.226562 1.609375 -0.6875 C 1.140625 -1.144531 0.90625 -1.804688 0.90625 -2.671875 L 0.90625 -7.875 C 0.90625 -8.75 1.140625 -9.414062 1.609375 -9.875 C 2.078125 -10.332031 2.742188 -10.5625 3.609375 -10.5625 L 5.359375 -10.5625 C 6.210938 -10.5625 6.875 -10.328125 7.34375 -9.859375 C 7.8125 -9.390625 8.046875 -8.726562 8.046875 -7.875 L 8.046875 -7.390625 C 8.046875 -7.148438 7.929688 -7.03125 7.703125 -7.03125 L 6.3125 -7.03125 C 6.082031 -7.03125 5.96875 -7.148438 5.96875 -7.390625 L 5.96875 -7.78125 C 5.96875 -8.132812 5.894531 -8.382812 5.75 -8.53125 C 5.601562 -8.675781 5.359375 -8.75 5.015625 -8.75 L 3.9375 -8.75 C 3.601562 -8.75 3.359375 -8.675781 3.203125 -8.53125 C 3.054688 -8.382812 2.984375 -8.132812 2.984375 -7.78125 L 2.984375 -2.78125 C 2.984375 -2.425781 3.054688 -2.175781 3.203125 -2.03125 C 3.359375 -1.882812 3.601562 -1.8125 3.9375 -1.8125 L 5.015625 -1.8125 C 5.359375 -1.8125 5.601562 -1.882812 5.75 -2.03125 C 5.894531 -2.175781 5.96875 -2.425781 5.96875 -2.78125 L 5.96875 -3.8125 C 5.96875 -3.925781 5.90625 -3.984375 5.78125 -3.984375 L 4.796875 -3.984375 C 4.566406 -3.984375 4.453125 -4.097656 4.453125 -4.328125 L 4.453125 -5.453125 C 4.453125 -5.679688 4.566406 -5.796875 4.796875 -5.796875 L 7.671875 -5.796875 C 7.921875 -5.796875 8.046875 -5.671875 8.046875 -5.421875 L 8.046875 -2.671875 C 8.046875 -1.816406 7.8125 -1.15625 7.34375 -0.6875 C 6.875 -0.226562 6.210938 0 5.359375 0 Z M 5.359375 0 "/></g></g><g style="fill:#000000;fill-opacity:1;"><g transform="translate(268.009933, 247.263046)"><path style="stroke:none" d="M 3.921875 0 L 3.390625 0 C 2.546875 0 1.90625 -0.226562 1.46875 -0.6875 C 1.039062 -1.144531 0.828125 -1.804688 0.828125 -2.671875 L 0.828125 -8.03125 C 0.828125 -8.257812 0.941406 -8.375 1.171875 -8.375 L 2.5625 -8.375 C 2.789062 -8.375 2.90625 -8.257812 2.90625 -8.03125 L 2.90625 -2.78125 C 2.90625 -2.425781 2.976562 -2.175781 3.125 -2.03125 C 3.269531 -1.882812 3.515625 -1.8125 3.859375 -1.8125 L 4.46875 -1.8125 C 5.21875 -1.8125 5.59375 -2.222656 5.59375 -3.046875 L 5.59375 -8.03125 C 5.59375 -8.257812 5.707031 -8.375 5.9375 -8.375 L 7.328125 -8.375 C 7.566406 -8.375 7.6875 -8.257812 7.6875 -8.03125 L 7.6875 -0.34375 C 7.6875 -0.113281 7.566406 0 7.328125 0 L 5.9375 0 C 5.707031 0 5.59375 -0.113281 5.59375 -0.34375 L 5.59375 -0.890625 L 5.53125 -0.890625 C 5.414062 -0.585938 5.203125 -0.363281 4.890625 -0.21875 C 4.585938 -0.0703125 4.265625 0 3.921875 0 Z M 3.921875 0 "/></g></g><g style="fill:#000000;fill-opacity:1;"><g transform="translate(276.599237, 247.263046)"><path style="stroke:none" d="M 3.84375 0 L 3.453125 0 C 2.585938 0 1.914062 -0.226562 1.4375 -0.6875 C 0.96875 -1.144531 0.734375 -1.804688 0.734375 -2.671875 L 0.734375 -5.703125 C 0.734375 -6.566406 0.96875 -7.226562 1.4375 -7.6875 C 1.914062 -8.144531 2.585938 -8.375 3.453125 -8.375 L 7.234375 -8.375 C 7.484375 -8.375 7.609375 -8.257812 7.609375 -8.03125 L 7.609375 -0.34375 C 7.609375 -0.113281 7.484375 0 7.234375 0 L 5.859375 0 C 5.628906 0 5.515625 -0.113281 5.515625 -0.34375 L 5.515625 -0.890625 L 5.453125 -0.890625 C 5.328125 -0.585938 5.113281 -0.363281 4.8125 -0.21875 C 4.507812 -0.0703125 4.1875 0 3.84375 0 Z M 5.515625 -3.046875 L 5.515625 -6.390625 C 5.515625 -6.503906 5.453125 -6.5625 5.328125 -6.5625 L 3.78125 -6.5625 C 3.425781 -6.5625 3.175781 -6.488281 3.03125 -6.34375 C 2.894531 -6.195312 2.828125 -5.945312 2.828125 -5.59375 L 2.828125 -2.78125 C 2.828125 -2.425781 2.894531 -2.175781 3.03125 -2.03125 C 3.175781 -1.882812 3.425781 -1.8125 3.78125 -1.8125 L 4.390625 -1.8125 C 5.140625 -1.8125 5.515625 -2.222656 5.515625 -3.046875 Z M 5.515625 -3.046875 "/></g></g><g style="fill:#000000;fill-opacity:1;"><g transform="translate(285.106424, 247.263046)"><path style="stroke:none" d="M 2.640625 0 L 1.25 0 C 1.019531 0 0.90625 -0.113281 0.90625 -0.34375 L 0.90625 -8.03125 C 0.90625 -8.257812 1.019531 -8.375 1.25 -8.375 L 2.640625 -8.375 C 2.867188 -8.375 2.984375 -8.257812 2.984375 -8.03125 L 2.984375 -7.46875 L 3.046875 -7.46875 C 3.171875 -7.769531 3.382812 -7.992188 3.6875 -8.140625 C 4 -8.296875 4.320312 -8.375 4.65625 -8.375 L 5.25 -8.375 C 5.46875 -8.375 5.578125 -8.257812 5.578125 -8.03125 L 5.578125 -6.890625 C 5.578125 -6.765625 5.550781 -6.675781 5.5 -6.625 C 5.457031 -6.570312 5.375 -6.550781 5.25 -6.5625 L 4.125 -6.5625 C 3.363281 -6.5625 2.984375 -6.132812 2.984375 -5.28125 L 2.984375 -0.34375 C 2.984375 -0.113281 2.867188 0 2.640625 0 Z M 2.640625 0 "/></g></g><g style="fill:#000000;fill-opacity:1;"><g transform="translate(290.8381, 247.263046)"><path style="stroke:none" d="M 3.96875 0 L 3.296875 0 C 2.453125 0 1.8125 -0.226562 1.375 -0.6875 C 0.945312 -1.144531 0.734375 -1.804688 0.734375 -2.671875 L 0.734375 -5.703125 C 0.734375 -6.566406 0.945312 -7.226562 1.375 -7.6875 C 1.8125 -8.144531 2.453125 -8.375 3.296875 -8.375 L 3.96875 -8.375 C 4.3125 -8.375 4.632812 -8.300781 4.9375 -8.15625 C 5.25 -8.007812 5.460938 -7.785156 5.578125 -7.484375 L 5.65625 -7.484375 L 5.65625 -11.203125 C 5.65625 -11.429688 5.769531 -11.546875 6 -11.546875 L 7.390625 -11.546875 C 7.617188 -11.546875 7.734375 -11.429688 7.734375 -11.203125 L 7.734375 -0.34375 C 7.734375 -0.113281 7.617188 0 7.390625 0 L 6 0 C 5.769531 0 5.65625 -0.113281 5.65625 -0.34375 L 5.65625 -0.890625 L 5.578125 -0.890625 C 5.460938 -0.585938 5.25 -0.363281 4.9375 -0.21875 C 4.632812 -0.0703125 4.3125 0 3.96875 0 Z M 5.65625 -3.046875 L 5.65625 -5.328125 C 5.65625 -6.148438 5.273438 -6.5625 4.515625 -6.5625 L 3.78125 -6.5625 C 3.425781 -6.5625 3.175781 -6.488281 3.03125 -6.34375 C 2.894531 -6.195312 2.828125 -5.945312 2.828125 -5.59375 L 2.828125 -2.78125 C 2.828125 -2.425781 2.894531 -2.175781 3.03125 -2.03125 C 3.175781 -1.882812 3.425781 -1.8125 3.78125 -1.8125 L 4.515625 -1.8125 C 5.273438 -1.8125 5.65625 -2.222656 5.65625 -3.046875 Z M 5.65625 -3.046875 "/></g></g><g style="fill:#000000;fill-opacity:1;"><g transform="translate(229.134543, 257.537451)"><path style="stroke:none" d="M 4.890625 -6.40625 L 6.375 -6.40625 C 6.507812 -6.40625 6.578125 -6.332031 6.578125 -6.1875 L 6.578125 -0.203125 C 6.578125 -0.0664062 6.507812 0 6.375 0 L 5.546875 0 C 5.410156 0 5.34375 -0.0664062 5.34375 -0.203125 L 5.34375 -4.921875 L 5.3125 -4.921875 L 4.296875 -1.59375 C 4.253906 -1.457031 4.171875 -1.390625 4.046875 -1.390625 L 3.203125 -1.390625 C 3.078125 -1.390625 2.992188 -1.457031 2.953125 -1.59375 L 1.921875 -4.9375 L 1.875 -4.9375 L 1.875 -0.203125 C 1.875 -0.128906 1.859375 -0.078125 1.828125 -0.046875 C 1.804688 -0.015625 1.753906 0 1.671875 0 L 0.859375 0 C 0.710938 0 0.640625 -0.0664062 0.640625 -0.203125 L 0.640625 -6.1875 C 0.640625 -6.332031 0.710938 -6.40625 0.859375 -6.40625 L 2.34375 -6.40625 C 2.4375 -6.40625 2.5 -6.359375 2.53125 -6.265625 L 3.578125 -2.75 L 3.640625 -2.75 L 4.703125 -6.265625 C 4.722656 -6.359375 4.785156 -6.40625 4.890625 -6.40625 Z M 4.890625 -6.40625 "/></g></g><g style="fill:#000000;fill-opacity:1;"><g transform="translate(236.356987, 257.537451)"><path style="stroke:none" d="M 4.296875 0 L 2.09375 0 C 1.5625 0 1.15625 -0.140625 0.875 -0.421875 C 0.59375 -0.703125 0.453125 -1.101562 0.453125 -1.625 L 0.453125 -3.453125 C 0.453125 -3.972656 0.59375 -4.375 0.875 -4.65625 C 1.15625 -4.9375 1.5625 -5.078125 2.09375 -5.078125 L 2.875 -5.078125 C 3.394531 -5.078125 3.796875 -4.9375 4.078125 -4.65625 C 4.367188 -4.375 4.515625 -3.972656 4.515625 -3.453125 L 4.515625 -2.1875 C 4.515625 -2.050781 4.445312 -1.984375 4.3125 -1.984375 L 1.8125 -1.984375 C 1.726562 -1.984375 1.6875 -1.945312 1.6875 -1.875 L 1.6875 -1.65625 C 1.6875 -1.445312 1.726562 -1.296875 1.8125 -1.203125 C 1.90625 -1.117188 2.0625 -1.078125 2.28125 -1.078125 L 4.296875 -1.078125 C 4.429688 -1.078125 4.5 -1.003906 4.5 -0.859375 L 4.5 -0.203125 C 4.5 -0.128906 4.484375 -0.078125 4.453125 -0.046875 C 4.421875 -0.015625 4.367188 0 4.296875 0 Z M 1.8125 -2.828125 L 3.171875 -2.828125 C 3.242188 -2.828125 3.28125 -2.863281 3.28125 -2.9375 L 3.28125 -3.40625 C 3.28125 -3.625 3.234375 -3.773438 3.140625 -3.859375 C 3.054688 -3.941406 2.910156 -3.984375 2.703125 -3.984375 L 2.28125 -3.984375 C 2.0625 -3.984375 1.910156 -3.941406 1.828125 -3.859375 C 1.742188 -3.773438 1.703125 -3.625 1.703125 -3.40625 L 1.703125 -2.9375 C 1.703125 -2.863281 1.738281 -2.828125 1.8125 -2.828125 Z M 1.8125 -2.828125 "/></g></g><g style="fill:#000000;fill-opacity:1;"><g transform="translate(241.271432, 257.537451)"><path style="stroke:none" d="M 2.40625 0 L 2 0 C 1.488281 0 1.101562 -0.140625 0.84375 -0.421875 C 0.582031 -0.703125 0.453125 -1.101562 0.453125 -1.625 L 0.453125 -3.453125 C 0.453125 -3.972656 0.582031 -4.375 0.84375 -4.65625 C 1.101562 -4.9375 1.488281 -5.078125 2 -5.078125 L 2.40625 -5.078125 C 2.613281 -5.078125 2.8125 -5.03125 3 -4.9375 C 3.1875 -4.851562 3.316406 -4.71875 3.390625 -4.53125 L 3.421875 -4.53125 L 3.421875 -6.78125 C 3.421875 -6.925781 3.492188 -7 3.640625 -7 L 4.484375 -7 C 4.617188 -7 4.6875 -6.925781 4.6875 -6.78125 L 4.6875 -0.203125 C 4.6875 -0.0664062 4.617188 0 4.484375 0 L 3.640625 0 C 3.492188 0 3.421875 -0.0664062 3.421875 -0.203125 L 3.421875 -0.53125 L 3.390625 -0.53125 C 3.316406 -0.351562 3.1875 -0.21875 3 -0.125 C 2.8125 -0.0390625 2.613281 0 2.40625 0 Z M 3.421875 -1.84375 L 3.421875 -3.21875 C 3.421875 -3.726562 3.191406 -3.984375 2.734375 -3.984375 L 2.296875 -3.984375 C 2.078125 -3.984375 1.925781 -3.9375 1.84375 -3.84375 C 1.757812 -3.757812 1.71875 -3.609375 1.71875 -3.390625 L 1.71875 -1.6875 C 1.71875 -1.46875 1.757812 -1.3125 1.84375 -1.21875 C 1.925781 -1.132812 2.078125 -1.09375 2.296875 -1.09375 L 2.734375 -1.09375 C 3.191406 -1.09375 3.421875 -1.34375 3.421875 -1.84375 Z M 3.421875 -1.84375 "/></g></g><g style="fill:#000000;fill-opacity:1;"><g transform="translate(246.504222, 257.537451)"><path style="stroke:none" d="M 0.59375 -5.9375 L 0.59375 -6.796875 C 0.59375 -6.929688 0.660156 -7 0.796875 -7 L 1.65625 -7 C 1.789062 -7 1.859375 -6.9375 1.859375 -6.8125 L 1.859375 -5.9375 C 1.859375 -5.800781 1.789062 -5.734375 1.65625 -5.734375 L 0.796875 -5.734375 C 0.660156 -5.734375 0.59375 -5.800781 0.59375 -5.9375 Z M 0.59375 -0.203125 L 0.59375 -4.859375 C 0.59375 -5.003906 0.660156 -5.078125 0.796875 -5.078125 L 1.65625 -5.078125 C 1.789062 -5.078125 1.859375 -5.003906 1.859375 -4.859375 L 1.859375 -0.203125 C 1.859375 -0.117188 1.84375 -0.0625 1.8125 -0.03125 C 1.78125 -0.0078125 1.726562 0 1.65625 0 L 0.8125 0 C 0.664062 0 0.59375 -0.0664062 0.59375 -0.203125 Z M 0.59375 -0.203125 "/></g></g><g style="fill:#000000;fill-opacity:1;"><g transform="translate(248.961445, 257.537451)"><path style="stroke:none" d="M 2.328125 0 L 2.09375 0 C 1.5625 0 1.15625 -0.140625 0.875 -0.421875 C 0.59375 -0.703125 0.453125 -1.101562 0.453125 -1.625 L 0.453125 -3.453125 C 0.453125 -3.972656 0.59375 -4.375 0.875 -4.65625 C 1.15625 -4.9375 1.5625 -5.078125 2.09375 -5.078125 L 4.390625 -5.078125 C 4.535156 -5.078125 4.609375 -5.003906 4.609375 -4.859375 L 4.609375 -0.203125 C 4.609375 -0.0664062 4.535156 0 4.390625 0 L 3.546875 0 C 3.410156 0 3.34375 -0.0664062 3.34375 -0.203125 L 3.34375 -0.53125 L 3.296875 -0.53125 C 3.222656 -0.351562 3.09375 -0.21875 2.90625 -0.125 C 2.726562 -0.0390625 2.535156 0 2.328125 0 Z M 3.34375 -1.84375 L 3.34375 -3.875 C 3.34375 -3.945312 3.300781 -3.984375 3.21875 -3.984375 L 2.296875 -3.984375 C 2.078125 -3.984375 1.925781 -3.9375 1.84375 -3.84375 C 1.757812 -3.757812 1.71875 -3.609375 1.71875 -3.390625 L 1.71875 -1.6875 C 1.71875 -1.46875 1.757812 -1.3125 1.84375 -1.21875 C 1.925781 -1.132812 2.078125 -1.09375 2.296875 -1.09375 L 2.65625 -1.09375 C 3.113281 -1.09375 3.34375 -1.34375 3.34375 -1.84375 Z M 3.34375 -1.84375 "/></g></g><g style="fill:#000000;fill-opacity:1;"><g transform="translate(254.117102, 257.537451)"><path style="stroke:none" d=""/></g></g></g></svg>